<svg width="49" height="20" viewBox="0 0 49 20" fill="none" xmlns="http://www.w3.org/2000/svg">
	<path
		d="M47.6481 9.3008C48.0824 9.35564 48.3616 9.6024 48.4857 10.0411C48.4236 10.425 48.1444 10.6443 47.6481 10.6991H3.53483L11.7246 17.9376C11.9728 18.2666 11.9728 18.5956 11.7246 18.9247C11.6005 18.9795 11.4144 19.0343 11.1662 19.0892C10.9801 19.0892 10.794 19.0343 10.6078 18.9247L1.11511 10.5346C1.05307 10.4798 0.991024 10.3975 0.92898 10.2879C0.866935 10.1234 0.866935 9.93143 0.92898 9.71208C0.92898 9.65724 0.991023 9.57499 1.11511 9.46531L10.6078 1.07528C10.9801 0.85593 11.3524 0.85593 11.7246 1.07528C11.9728 1.4043 11.9728 1.73332 11.7246 2.06234L3.53483 9.3008H47.6481Z"
		fill="white"
	/>
</svg>