<svg width="14" height="16" viewBox="0 0 14 16" fill="none" xmlns="http://www.w3.org/2000/svg">
<path d="M9.25 3.5H4.75M8.5 6.5L8.275 11.75L8.5 6.5ZM5.725 11.75L5.5 6.5L5.725 11.75ZM2.5 3.5L3.15665 13.3497C3.20918 14.1377 3.86363 14.75 4.65333 14.75H9.34667C10.1363 14.75 10.7908 14.1377 10.8434 13.3497L11.5 3.5H2.5ZM2.5 3.5H4.75H2.5ZM2.5 3.5H1H2.5ZM11.5 3.5H13H11.5ZM11.5 3.5H9.25H11.5ZM9.25 3.5V2.75C9.25 1.92157 8.57845 1.25 7.75 1.25H6.25C5.42157 1.25 4.75 1.92157 4.75 2.75V3.5H9.25Z" stroke="white" stroke-width="1.8" stroke-linecap="round" stroke-linejoin="round"/>
</svg>
