<svg width="14" height="16" viewBox="0 0 14 16" fill="none" xmlns="http://www.w3.org/2000/svg">
<path fill-rule="evenodd" clip-rule="evenodd" d="M1.375 11.375V9.35801C1.375 9.20882 1.43427 9.06574 1.53976 8.96025L9.4147 1.08525C9.63441 0.865585 9.99059 0.865585 10.2103 1.08525L12.2272 3.10227C12.4469 3.32193 12.4469 3.67809 12.2272 3.89775L4.35226 11.7728C4.24677 11.8782 4.10369 11.9375 3.9545 11.9375H1.9375C1.62684 11.9375 1.375 11.6856 1.375 11.375ZM1.375 13.9063C0.909014 13.9063 0.53125 14.284 0.53125 14.75C0.53125 15.216 0.909014 15.5938 1.375 15.5938H12.625C13.091 15.5938 13.4688 15.216 13.4688 14.75C13.4688 14.284 13.091 13.9063 12.625 13.9063H1.375Z" fill="white"/>
</svg>
